<?xml version="1.0" encoding="UTF-8"?> <svg xmlns="http://www.w3.org/2000/svg" width="580" height="56" viewBox="0 0 580 56" fill="none"><path d="M34.392 37H31.5966L37.8778 19.5455H40.9205L47.2017 37H44.4062L39.4716 22.7159H39.3352L34.392 37ZM34.8608 30.1648H43.929V32.3807H34.8608V30.1648ZM61.2423 37V19.5455H67.6343C68.873 19.5455 69.8986 19.75 70.7111 20.1591C71.5236 20.5625 72.1315 21.1108 72.5349 21.804C72.9383 22.4915 73.14 23.267 73.14 24.1307C73.14 24.858 73.0065 25.4716 72.7395 25.9716C72.4724 26.4659 72.1145 26.8636 71.6656 27.1648C71.2224 27.4602 70.7338 27.6761 70.1997 27.8125V27.983C70.7792 28.0114 71.3446 28.1989 71.8957 28.5455C72.4525 28.8864 72.9128 29.3722 73.2764 30.0028C73.64 30.6335 73.8218 31.4006 73.8218 32.304C73.8218 33.196 73.6116 33.9972 73.1912 34.7074C72.7764 35.4119 72.1343 35.9716 71.265 36.3864C70.3957 36.7955 69.2849 37 67.9326 37H61.2423ZM63.8758 34.7415H67.677C68.9383 34.7415 69.8417 34.4972 70.3872 34.0085C70.9326 33.5199 71.2054 32.9091 71.2054 32.1761C71.2054 31.625 71.0662 31.1193 70.7878 30.6591C70.5093 30.1989 70.1116 29.8324 69.5946 29.5597C69.0832 29.2869 68.4753 29.1506 67.7707 29.1506H63.8758V34.7415ZM63.8758 27.0966H67.4042C67.9951 27.0966 68.5264 26.983 68.998 26.7557C69.4753 26.5284 69.8531 26.2102 70.1315 25.8011C70.4156 25.3864 70.5576 24.8977 70.5576 24.3352C70.5576 23.6136 70.3048 23.0085 69.7991 22.5199C69.2934 22.0312 68.5179 21.7869 67.4724 21.7869H63.8758V27.0966ZM103.627 28.2727C103.627 30.1364 103.286 31.7386 102.605 33.0795C101.923 34.4148 100.988 35.4432 99.8007 36.1648C98.6188 36.8807 97.2751 37.2386 95.7694 37.2386C94.258 37.2386 92.9086 36.8807 91.7211 36.1648C90.5393 35.4432 89.6075 34.4119 88.9257 33.071C88.2438 31.7301 87.9029 30.1307 87.9029 28.2727C87.9029 26.4091 88.2438 24.8097 88.9257 23.4744C89.6075 22.1335 90.5393 21.1051 91.7211 20.3892C92.9086 19.6676 94.258 19.3068 95.7694 19.3068C97.2751 19.3068 98.6188 19.6676 99.8007 20.3892C100.988 21.1051 101.923 22.1335 102.605 23.4744C103.286 24.8097 103.627 26.4091 103.627 28.2727ZM101.019 28.2727C101.019 26.8523 100.789 25.6562 100.329 24.6847C99.8745 23.7074 99.2495 22.9688 98.4541 22.4688C97.6643 21.9631 96.7694 21.7102 95.7694 21.7102C94.7637 21.7102 93.866 21.9631 93.0762 22.4688C92.2864 22.9688 91.6614 23.7074 91.2012 24.6847C90.7467 25.6562 90.5194 26.8523 90.5194 28.2727C90.5194 29.6932 90.7467 30.892 91.2012 31.8693C91.6614 32.8409 92.2864 33.5795 93.0762 34.0852C93.866 34.5852 94.7637 34.8352 95.7694 34.8352C96.7694 34.8352 97.6643 34.5852 98.4541 34.0852C99.2495 33.5795 99.8745 32.8409 100.329 31.8693C100.789 30.892 101.019 29.6932 101.019 28.2727ZM129.655 19.5455H132.297V31.0256C132.297 32.2472 132.01 33.3295 131.436 34.2727C130.863 35.2102 130.056 35.9489 129.016 36.4886C127.976 37.0227 126.757 37.2898 125.36 37.2898C123.968 37.2898 122.752 37.0227 121.712 36.4886C120.672 35.9489 119.865 35.2102 119.292 34.2727C118.718 33.3295 118.431 32.2472 118.431 31.0256V19.5455H121.064V30.8125C121.064 31.6023 121.238 32.304 121.584 32.9176C121.936 33.5312 122.434 34.0142 123.076 34.3665C123.718 34.7131 124.479 34.8864 125.36 34.8864C126.246 34.8864 127.01 34.7131 127.652 34.3665C128.3 34.0142 128.794 33.5312 129.135 32.9176C129.482 32.304 129.655 31.6023 129.655 30.8125V19.5455ZM146.785 21.8125V19.5455H160.294V21.8125H154.848V37H152.223V21.8125H146.785ZM191.81 21.8125V19.5455H205.318V21.8125H199.872V37H197.247V21.8125H191.81ZM219.823 37V19.5455H222.457V27.1307H231.158V19.5455H233.801V37H231.158V29.3892H222.457V37H219.823ZM249.156 37V19.5455H260.099V21.8125H251.789V27.1307H259.528V29.3892H251.789V34.733H260.201V37H249.156ZM295.642 19.5455V37H293.008V19.5455H295.642ZM325.085 19.5455V37H322.665L313.792 24.1989H313.631V37H310.997V19.5455H313.434L322.315 32.3636H322.477V19.5455H325.085ZM349.967 24.1307C349.876 23.3239 349.501 22.6989 348.842 22.2557C348.182 21.8068 347.353 21.5824 346.353 21.5824C345.637 21.5824 345.018 21.696 344.495 21.9233C343.972 22.1449 343.566 22.4517 343.276 22.8438C342.992 23.2301 342.85 23.6705 342.85 24.1648C342.85 24.5795 342.947 24.9375 343.14 25.2386C343.339 25.5398 343.597 25.7926 343.915 25.9972C344.239 26.196 344.586 26.3636 344.955 26.5C345.325 26.6307 345.68 26.7386 346.021 26.8239L347.725 27.267C348.282 27.4034 348.853 27.5881 349.438 27.821C350.023 28.054 350.566 28.3608 351.066 28.7415C351.566 29.1222 351.969 29.5938 352.276 30.1562C352.589 30.7188 352.745 31.392 352.745 32.1761C352.745 33.1648 352.489 34.0426 351.978 34.8097C351.472 35.5767 350.736 36.1818 349.771 36.625C348.81 37.0682 347.648 37.2898 346.285 37.2898C344.978 37.2898 343.847 37.0824 342.893 36.6676C341.938 36.2528 341.191 35.6648 340.651 34.9034C340.111 34.1364 339.813 33.2273 339.756 32.1761H342.398C342.45 32.8068 342.654 33.3324 343.012 33.7528C343.376 34.1676 343.839 34.4773 344.401 34.6818C344.969 34.8807 345.592 34.9801 346.268 34.9801C347.012 34.9801 347.674 34.8636 348.253 34.6307C348.839 34.392 349.299 34.0625 349.634 33.642C349.969 33.2159 350.137 32.7187 350.137 32.1506C350.137 31.6335 349.989 31.2102 349.694 30.8807C349.404 30.5511 349.009 30.2784 348.509 30.0625C348.015 29.8466 347.455 29.6562 346.83 29.4915L344.768 28.929C343.37 28.5483 342.262 27.9886 341.444 27.25C340.631 26.5114 340.225 25.5341 340.225 24.3182C340.225 23.3125 340.498 22.4347 341.043 21.6847C341.589 20.9347 342.327 20.3523 343.259 19.9375C344.191 19.517 345.242 19.3068 346.413 19.3068C347.594 19.3068 348.637 19.5142 349.54 19.929C350.45 20.3438 351.165 20.9148 351.688 21.642C352.211 22.3636 352.484 23.1932 352.506 24.1307H349.967ZM366.551 21.8125V19.5455H380.06V21.8125H374.614V37H371.989V21.8125H366.551ZM394.565 37V19.5455H400.786C402.139 19.5455 403.261 19.7784 404.153 20.2443C405.051 20.7102 405.721 21.3551 406.164 22.179C406.607 22.9972 406.829 23.9432 406.829 25.017C406.829 26.0852 406.605 27.0256 406.156 27.8381C405.713 28.6449 405.042 29.2727 404.144 29.7216C403.252 30.1705 402.13 30.3949 400.778 30.3949H396.065V28.1278H400.539C401.392 28.1278 402.085 28.0057 402.619 27.7614C403.159 27.517 403.553 27.1619 403.803 26.696C404.053 26.2301 404.178 25.6705 404.178 25.017C404.178 24.358 404.051 23.7869 403.795 23.304C403.545 22.821 403.15 22.4517 402.61 22.196C402.076 21.9347 401.374 21.804 400.505 21.804H397.198V37H394.565ZM403.181 29.125L407.494 37H404.494L400.267 29.125H403.181ZM432.778 19.5455H435.42V31.0256C435.42 32.2472 435.133 33.3295 434.559 34.2727C433.985 35.2102 433.179 35.9489 432.139 36.4886C431.099 37.0227 429.88 37.2898 428.483 37.2898C427.091 37.2898 425.875 37.0227 424.835 36.4886C423.795 35.9489 422.988 35.2102 422.414 34.2727C421.841 33.3295 421.554 32.2472 421.554 31.0256V19.5455H424.187V30.8125C424.187 31.6023 424.36 32.304 424.707 32.9176C425.059 33.5312 425.556 34.0142 426.198 34.3665C426.841 34.7131 427.602 34.8864 428.483 34.8864C429.369 34.8864 430.133 34.7131 430.775 34.3665C431.423 34.0142 431.917 33.5312 432.258 32.9176C432.605 32.304 432.778 31.6023 432.778 30.8125V19.5455ZM465.266 25.2216H462.607C462.505 24.6534 462.314 24.1534 462.036 23.7216C461.758 23.2898 461.417 22.9233 461.013 22.6222C460.61 22.321 460.158 22.0937 459.658 21.9403C459.164 21.7869 458.638 21.7102 458.081 21.7102C457.076 21.7102 456.175 21.9631 455.38 22.4688C454.59 22.9744 453.965 23.7159 453.505 24.6932C453.05 25.6705 452.823 26.8636 452.823 28.2727C452.823 29.6932 453.05 30.892 453.505 31.8693C453.965 32.8466 454.593 33.5852 455.388 34.0852C456.184 34.5852 457.079 34.8352 458.073 34.8352C458.624 34.8352 459.147 34.7614 459.641 34.6136C460.141 34.4602 460.593 34.2358 460.996 33.9403C461.4 33.6449 461.74 33.2841 462.019 32.858C462.303 32.4261 462.499 31.9318 462.607 31.375L465.266 31.3835C465.124 32.2415 464.848 33.0312 464.439 33.7528C464.036 34.4688 463.516 35.0881 462.88 35.6108C462.249 36.1278 461.527 36.5284 460.715 36.8125C459.902 37.0966 459.016 37.2386 458.056 37.2386C456.544 37.2386 455.198 36.8807 454.016 36.1648C452.834 35.4432 451.902 34.4119 451.221 33.071C450.544 31.7301 450.206 30.1307 450.206 28.2727C450.206 26.4091 450.547 24.8097 451.229 23.4744C451.911 22.1335 452.843 21.1051 454.025 20.3892C455.206 19.6676 456.55 19.3068 458.056 19.3068C458.982 19.3068 459.846 19.4403 460.647 19.7074C461.454 19.9687 462.178 20.3551 462.82 20.8665C463.462 21.3722 463.993 21.9915 464.414 22.7244C464.834 23.4517 465.118 24.2841 465.266 25.2216ZM479.077 21.8125V19.5455H492.585V21.8125H487.139V37H484.514V21.8125H479.077ZM521.502 28.2727C521.502 30.1364 521.161 31.7386 520.479 33.0795C519.798 34.4148 518.863 35.4432 517.675 36.1648C516.494 36.8807 515.15 37.2386 513.644 37.2386C512.133 37.2386 510.783 36.8807 509.596 36.1648C508.414 35.4432 507.482 34.4119 506.8 33.071C506.119 31.7301 505.778 30.1307 505.778 28.2727C505.778 26.4091 506.119 24.8097 506.8 23.4744C507.482 22.1335 508.414 21.1051 509.596 20.3892C510.783 19.6676 512.133 19.3068 513.644 19.3068C515.15 19.3068 516.494 19.6676 517.675 20.3892C518.863 21.1051 519.798 22.1335 520.479 23.4744C521.161 24.8097 521.502 26.4091 521.502 28.2727ZM518.894 28.2727C518.894 26.8523 518.664 25.6562 518.204 24.6847C517.749 23.7074 517.124 22.9688 516.329 22.4688C515.539 21.9631 514.644 21.7102 513.644 21.7102C512.638 21.7102 511.741 21.9631 510.951 22.4688C510.161 22.9688 509.536 23.7074 509.076 24.6847C508.621 25.6562 508.394 26.8523 508.394 28.2727C508.394 29.6932 508.621 30.892 509.076 31.8693C509.536 32.8409 510.161 33.5795 510.951 34.0852C511.741 34.5852 512.638 34.8352 513.644 34.8352C514.644 34.8352 515.539 34.5852 516.329 34.0852C517.124 33.5795 517.749 32.8409 518.204 31.8693C518.664 30.892 518.894 29.6932 518.894 28.2727ZM536.305 37V19.5455H542.527C543.879 19.5455 545.001 19.7784 545.893 20.2443C546.791 20.7102 547.462 21.3551 547.905 22.179C548.348 22.9972 548.57 23.9432 548.57 25.017C548.57 26.0852 548.345 27.0256 547.896 27.8381C547.453 28.6449 546.783 29.2727 545.885 29.7216C544.993 30.1705 543.871 30.3949 542.518 30.3949H537.805V28.1278H542.28C543.132 28.1278 543.825 28.0057 544.359 27.7614C544.899 27.517 545.294 27.1619 545.544 26.696C545.794 26.2301 545.919 25.6705 545.919 25.017C545.919 24.358 545.791 23.7869 545.536 23.304C545.286 22.821 544.891 22.4517 544.351 22.196C543.817 21.9347 543.115 21.804 542.246 21.804H538.939V37H536.305ZM544.922 29.125L549.234 37H546.234L542.007 29.125H544.922Z" fill="url(#paint0_linear_697_965)"></path><rect data-figma-bg-blur-radius="44.8793" x="0.5" y="0.5" width="579" height="55" rx="16.5" stroke="url(#paint1_linear_697_965)" stroke-dasharray="2.88 2.88"></rect><defs><clipPath id="bgblur_0_697_965_clip_path" transform="translate(44.8793 44.8793)"><rect x="0.5" y="0.5" width="579" height="55" rx="16.5"></rect></clipPath><linearGradient id="paint0_linear_697_965" x1="479.416" y1="58.7222" x2="391.764" y2="-148.048" gradientUnits="userSpaceOnUse"><stop stop-color="#CB9541"></stop><stop offset="1" stop-color="#FFDBA1"></stop></linearGradient><linearGradient id="paint1_linear_697_965" x1="500.392" y1="124" x2="119.858" y2="-190.727" gradientUnits="userSpaceOnUse"><stop stop-color="#CB9541"></stop><stop offset="1" stop-color="#FFDBA1"></stop></linearGradient></defs></svg> 