<?xml version="1.0" encoding="UTF-8"?> <svg xmlns="http://www.w3.org/2000/svg" width="82" height="48" viewBox="0 0 82 48" fill="none"><rect width="82" height="48" rx="6" fill="url(#paint0_linear_696_953)"></rect><path d="M53 26.071V17.6915C53 14.5428 50.4518 12 47.3085 12H33.6915C30.5428 12 28 14.5482 28 17.6915V36.0221C28 36.5635 28.4401 37 28.9777 37C29.2023 37 29.4249 36.9226 29.6039 36.7731L35.6168 31.7625H47.3085C50.4467 31.7625 53 29.2095 53 26.071ZM40.5 27.5728C39.9601 27.5728 39.5221 27.1348 39.5221 26.5949C39.5221 26.055 39.9601 25.617 40.5 25.617C41.0396 25.617 41.4779 26.055 41.4779 26.5949C41.4779 27.1348 41.0396 27.5728 40.5 27.5728ZM41.4779 23.2478V23.4526C41.4779 23.9925 41.0399 24.4305 40.5 24.4305C39.9599 24.4305 39.5221 23.9925 39.5221 23.4526V22.4051C39.5221 21.865 39.9599 21.4272 40.5 21.4272C41.4046 21.4272 42.1406 20.691 42.1406 19.7864C42.1406 18.8816 41.4046 18.1456 40.5 18.1456C40.061 18.1456 39.6492 18.3162 39.3395 18.6259C39.0298 18.9356 38.8592 19.3474 38.8592 19.7851C38.8592 20.3253 38.4214 20.7638 37.8813 20.7638C37.3411 20.7638 36.9034 20.3263 36.9034 19.7864V19.7851C36.9034 18.825 37.2775 17.922 37.9564 17.2431C38.6356 16.5639 39.5384 16.1898 40.4987 16.1898C42.4831 16.1898 44.0964 17.8033 44.0964 19.7864C44.0964 21.4308 42.9873 22.821 41.4779 23.2478Z" fill="#48370A"></path><defs><linearGradient id="paint0_linear_696_953" x1="70.848" y1="109.333" x2="-18.5091" y2="97.5381" gradientUnits="userSpaceOnUse"><stop stop-color="#CB9541"></stop><stop offset="1" stop-color="#FFDBA1"></stop></linearGradient></defs></svg> 