<?xml version="1.0" encoding="UTF-8"?> <svg xmlns="http://www.w3.org/2000/svg" width="78" height="40" viewBox="0 0 78 40" fill="none"><rect opacity="0.08" width="78" height="40" rx="6" fill="white"></rect><path d="M30.2779 27L32.4256 13.9091H33.704L31.5563 27H30.2779ZM24.3205 23.3693L24.525 22.0909H34.2921L34.0875 23.3693H24.3205ZM25.6756 27L27.8233 13.9091H29.1017L26.954 27H25.6756ZM25.0875 18.8182L25.2921 17.5398H35.0591L34.8546 18.8182H25.0875ZM40.9941 27.179C40.0311 27.179 39.2108 26.9169 38.5332 26.3928C37.8556 25.8643 37.3379 25.0994 36.9799 24.098C36.622 23.0923 36.443 21.8778 36.443 20.4545C36.443 19.0398 36.622 17.8317 36.9799 16.8303C37.3422 15.8246 37.862 15.0575 38.5396 14.5291C39.2214 13.9964 40.0396 13.7301 40.9941 13.7301C41.9487 13.7301 42.7647 13.9964 43.4423 14.5291C44.1241 15.0575 44.644 15.8246 45.002 16.8303C45.3642 17.8317 45.5453 19.0398 45.5453 20.4545C45.5453 21.8778 45.3663 23.0923 45.0083 24.098C44.6504 25.0994 44.1326 25.8643 43.4551 26.3928C42.7775 26.9169 41.9572 27.179 40.9941 27.179ZM40.9941 25.7727C41.9487 25.7727 42.6902 25.3125 43.2186 24.392C43.747 23.4716 44.0112 22.1591 44.0112 20.4545C44.0112 19.321 43.8897 18.3558 43.6468 17.5589C43.4082 16.7621 43.063 16.1548 42.6113 15.7372C42.1639 15.3196 41.6248 15.1108 40.9941 15.1108C40.0481 15.1108 39.3088 15.5774 38.7761 16.5107C38.2434 17.4396 37.9771 18.7543 37.9771 20.4545C37.9771 21.5881 38.0964 22.5511 38.335 23.3438C38.5737 24.1364 38.9167 24.7393 39.3642 25.1527C39.8159 25.5661 40.3592 25.7727 40.9941 25.7727ZM52.5765 13.9091V27H50.9913V15.571H50.9146L47.7186 17.6932V16.0824L50.9913 13.9091H52.5765Z" fill="url(#paint0_linear_686_590)"></path><defs><linearGradient id="paint0_linear_686_590" x1="50.784" y1="43.6111" x2="17.5426" y2="37.4861" gradientUnits="userSpaceOnUse"><stop stop-color="#CB9541"></stop><stop offset="1" stop-color="#FFDBA1"></stop></linearGradient></defs></svg> 