<?xml version="1.0" encoding="UTF-8"?> <svg xmlns="http://www.w3.org/2000/svg" width="82" height="48" viewBox="0 0 82 48" fill="none"><rect width="82" height="48" rx="6" fill="url(#paint0_linear_696_954)"></rect><path d="M58 24.5C58 19.8131 54.2199 16 49.5734 16C47.3226 16 45.2066 16.8841 43.615 18.4896L35.0414 27.1378C34.343 27.8424 33.4143 28.2304 32.4265 28.2304C30.3873 28.2304 28.7283 26.557 28.7283 24.5C28.7283 22.443 30.3873 20.7696 32.4265 20.7696C33.4143 20.7696 34.343 21.1576 35.0415 21.8623L36.2478 23.079L39.5913 19.7065L38.3849 18.4896C36.7934 16.8841 34.6773 16 32.4265 16C27.7801 16 24 19.8131 24 24.5C24 29.1869 27.7801 33 32.4266 33C34.6774 33 36.7934 32.1159 38.385 30.5104L46.9586 21.8621C47.657 21.1576 48.5857 20.7695 49.5735 20.7695C51.6127 20.7695 53.2717 22.443 53.2717 24.4999C53.2717 26.5569 51.6127 28.2303 49.5735 28.2303C48.5856 28.2303 47.6569 27.8423 46.9585 27.1376L45.7522 25.9208L42.4087 29.2934L43.615 30.5102C45.2066 32.1157 47.3227 32.9999 49.5735 32.9999C54.2199 33 58 29.1869 58 24.5Z" fill="#48370A"></path><defs><linearGradient id="paint0_linear_696_954" x1="70.848" y1="109.333" x2="-18.5091" y2="97.5381" gradientUnits="userSpaceOnUse"><stop stop-color="#CB9541"></stop><stop offset="1" stop-color="#FFDBA1"></stop></linearGradient></defs></svg> 