<?xml version="1.0" encoding="UTF-8"?> <svg xmlns="http://www.w3.org/2000/svg" width="82" height="48" viewBox="0 0 82 48" fill="none"><rect width="82" height="48" rx="6" fill="url(#paint0_linear_696_956)"></rect><path d="M46.5671 26.2283C46.5671 29.2216 44.0692 31.656 41 31.656C37.9308 31.656 35.4329 29.2207 35.4329 26.2283C35.4329 23.2359 37.9308 20.7996 41 20.7996C44.0692 20.7996 46.5671 23.235 46.5671 26.2283ZM37.3077 32.4867V36.0991C37.3077 36.4384 37.5034 36.7489 37.8145 36.9028C38.1246 37.0558 38.4975 37.0261 38.7782 36.8245L41 35.2307L43.2218 36.8245C43.3834 36.9406 43.5763 37 43.7692 37C43.9114 37 44.0545 36.9676 44.1855 36.9037C44.4966 36.7507 44.6923 36.4393 44.6923 36.1V32.4875C43.604 33.1004 42.3449 33.4568 41 33.4568C39.6551 33.4568 38.396 33.0995 37.3077 32.4867ZM53 12.6999V25.2995C53 26.788 51.7575 27.9994 50.2308 27.9994H48.1788C48.3265 27.4315 48.4132 26.8402 48.4132 26.2283C48.4132 22.2423 45.0874 18.9997 41 18.9997C36.9126 18.9997 33.5868 22.2423 33.5868 26.2283C33.5868 26.8402 33.6735 27.4315 33.8212 27.9994H31.7692C30.2425 27.9994 29 26.788 29 25.2995V12.6999C29 11.2114 30.2425 10 31.7692 10H50.2308C51.7575 10 53 11.2114 53 12.6999ZM37.3077 12.6999C37.3077 13.1967 37.7203 13.5999 38.2308 13.5999H43.7692C44.2797 13.5999 44.6923 13.1967 44.6923 12.6999C44.6923 12.2031 44.2797 11.7999 43.7692 11.7999H38.2308C37.7203 11.7999 37.3077 12.2031 37.3077 12.6999ZM47.4615 16.2998C47.4615 15.803 47.0489 15.3998 46.5385 15.3998H35.4615C34.9511 15.3998 34.5385 15.803 34.5385 16.2998C34.5385 16.7966 34.9511 17.1998 35.4615 17.1998H46.5385C47.0489 17.1998 47.4615 16.7966 47.4615 16.2998Z" fill="#48370A"></path><defs><linearGradient id="paint0_linear_696_956" x1="70.848" y1="109.333" x2="-18.5091" y2="97.5381" gradientUnits="userSpaceOnUse"><stop stop-color="#CB9541"></stop><stop offset="1" stop-color="#FFDBA1"></stop></linearGradient></defs></svg> 