<?xml version="1.0" encoding="UTF-8"?> <svg xmlns="http://www.w3.org/2000/svg" width="78" height="40" viewBox="0 0 78 40" fill="none"><rect opacity="0.08" width="78" height="40" rx="6" fill="white"></rect><path d="M28.6871 27L30.8348 13.9091H32.1132L29.9655 27H28.6871ZM22.7297 23.3693L22.9342 22.0909H32.7013L32.4967 23.3693H22.7297ZM24.0848 27L26.2325 13.9091H27.5109L25.3632 27H24.0848ZM23.4967 18.8182L23.7013 17.5398H33.4683L33.2638 18.8182H23.4967ZM39.4033 27.179C38.4403 27.179 37.6199 26.9169 36.9424 26.3928C36.2648 25.8643 35.7471 25.0994 35.3891 24.098C35.0312 23.0923 34.8522 21.8778 34.8522 20.4545C34.8522 19.0398 35.0312 17.8317 35.3891 16.8303C35.7513 15.8246 36.2712 15.0575 36.9488 14.5291C37.6306 13.9964 38.4488 13.7301 39.4033 13.7301C40.3579 13.7301 41.1739 13.9964 41.8515 14.5291C42.5333 15.0575 43.0532 15.8246 43.4111 16.8303C43.7733 17.8317 43.9545 19.0398 43.9545 20.4545C43.9545 21.8778 43.7755 23.0923 43.4175 24.098C43.0596 25.0994 42.5418 25.8643 41.8643 26.3928C41.1867 26.9169 40.3664 27.179 39.4033 27.179ZM39.4033 25.7727C40.3579 25.7727 41.0993 25.3125 41.6278 24.392C42.1562 23.4716 42.4204 22.1591 42.4204 20.4545C42.4204 19.321 42.2989 18.3558 42.056 17.5589C41.8174 16.7621 41.4722 16.1548 41.0205 15.7372C40.5731 15.3196 40.034 15.1108 39.4033 15.1108C38.4573 15.1108 37.718 15.5774 37.1853 16.5107C36.6526 17.4396 36.3863 18.7543 36.3863 20.4545C36.3863 21.5881 36.5056 22.5511 36.7442 23.3438C36.9829 24.1364 37.3259 24.7393 37.7733 25.1527C38.2251 25.5661 38.7684 25.7727 39.4033 25.7727ZM46.0766 24.3153V23.0114L51.8295 13.9091H52.7755V15.929H52.1363L47.7897 22.8068V22.9091H55.5368V24.3153H46.0766ZM52.2385 27V23.919V23.3118V13.9091H53.7471V27H52.2385Z" fill="url(#paint0_linear_686_596)"></path><defs><linearGradient id="paint0_linear_686_596" x1="52.24" y1="43.6111" x2="15.0449" y2="35.8733" gradientUnits="userSpaceOnUse"><stop stop-color="#CB9541"></stop><stop offset="1" stop-color="#FFDBA1"></stop></linearGradient></defs></svg> 