<?xml version="1.0" encoding="UTF-8"?> <svg xmlns="http://www.w3.org/2000/svg" width="78" height="40" viewBox="0 0 78 40" fill="none"><rect opacity="0.08" width="78" height="40" rx="6" fill="white"></rect><path d="M28.5123 27L30.66 13.9091H31.9384L29.7907 27H28.5123ZM22.5549 23.3693L22.7594 22.0909H32.5265L32.3219 23.3693H22.5549ZM23.91 27L26.0577 13.9091H27.3361L25.1884 27H23.91ZM23.3219 18.8182L23.5265 17.5398H33.2935L33.089 18.8182H23.3219ZM39.2285 27.179C38.2654 27.179 37.4451 26.9169 36.7676 26.3928C36.09 25.8643 35.5723 25.0994 35.2143 24.098C34.8564 23.0923 34.6774 21.8778 34.6774 20.4545C34.6774 19.0398 34.8564 17.8317 35.2143 16.8303C35.5765 15.8246 36.0964 15.0575 36.774 14.5291C37.4558 13.9964 38.274 13.7301 39.2285 13.7301C40.1831 13.7301 40.9991 13.9964 41.6767 14.5291C42.3585 15.0575 42.8784 15.8246 43.2363 16.8303C43.5985 17.8317 43.7797 19.0398 43.7797 20.4545C43.7797 21.8778 43.6007 23.0923 43.2427 24.098C42.8848 25.0994 42.367 25.8643 41.6895 26.3928C41.0119 26.9169 40.1916 27.179 39.2285 27.179ZM39.2285 25.7727C40.1831 25.7727 40.9245 25.3125 41.4529 24.392C41.9814 23.4716 42.2456 22.1591 42.2456 20.4545C42.2456 19.321 42.1241 18.3558 41.8812 17.5589C41.6426 16.7621 41.2974 16.1548 40.8457 15.7372C40.3983 15.3196 39.8592 15.1108 39.2285 15.1108C38.2825 15.1108 37.5431 15.5774 37.0105 16.5107C36.4778 17.4396 36.2115 18.7543 36.2115 20.4545C36.2115 21.5881 36.3308 22.5511 36.5694 23.3438C36.8081 24.1364 37.1511 24.7393 37.5985 25.1527C38.0502 25.5661 38.5936 25.7727 39.2285 25.7727ZM46.2086 27V25.8494L50.5297 21.1193C51.0368 20.5653 51.4544 20.0838 51.7825 19.6747C52.1106 19.2614 52.3535 18.8736 52.5112 18.5114C52.6731 18.1449 52.7541 17.7614 52.7541 17.3608C52.7541 16.9006 52.6433 16.5021 52.4217 16.1655C52.2044 15.8288 51.9061 15.5689 51.5268 15.3857C51.1475 15.2024 50.7214 15.1108 50.2484 15.1108C49.7456 15.1108 49.3066 15.2152 48.9316 15.424C48.5609 15.6286 48.2733 15.9162 48.0687 16.2869C47.8684 16.6577 47.7683 17.0923 47.7683 17.5909H46.2598C46.2598 16.8239 46.4366 16.1506 46.7903 15.571C47.144 14.9915 47.6255 14.5398 48.2349 14.2159C48.8485 13.892 49.5368 13.7301 50.2995 13.7301C51.0666 13.7301 51.7463 13.892 52.3386 14.2159C52.9309 14.5398 53.3954 14.9766 53.7321 15.5263C54.0687 16.076 54.237 16.6875 54.237 17.3608C54.237 17.8423 54.1497 18.3132 53.975 18.7734C53.8045 19.2294 53.5062 19.7386 53.0801 20.3011C52.6582 20.8594 52.0723 21.5412 51.3223 22.3466L48.3819 25.4915V25.5938H54.4672V27H46.2086Z" fill="url(#paint0_linear_686_602)"></path><defs><linearGradient id="paint0_linear_686_602" x1="51.376" y1="43.6111" x2="15.159" y2="36.2921" gradientUnits="userSpaceOnUse"><stop stop-color="#CB9541"></stop><stop offset="1" stop-color="#FFDBA1"></stop></linearGradient></defs></svg> 