<?xml version="1.0" encoding="UTF-8"?> <svg xmlns="http://www.w3.org/2000/svg" width="322" height="47" viewBox="0 0 322 47" fill="none"><path d="M38.8365 31H36.5069L41.7413 16.4545H44.2768L49.5112 31H47.1816L43.0694 19.0966H42.9558L38.8365 31ZM39.2271 25.304H46.7839V27.1506H39.2271V25.304ZM51.6117 31V16.4545H56.9384C57.9706 16.4545 58.8252 16.625 59.5023 16.9659C60.1794 17.3021 60.686 17.759 61.0222 18.3366C61.3584 18.9096 61.5265 19.5559 61.5265 20.2756C61.5265 20.8816 61.4152 21.393 61.1926 21.8097C60.9701 22.2216 60.6718 22.553 60.2978 22.804C59.9284 23.0502 59.5212 23.2301 59.0762 23.3438V23.4858C59.5591 23.5095 60.0302 23.6657 60.4895 23.9545C60.9535 24.2386 61.3371 24.6435 61.6401 25.169C61.9431 25.6946 62.0946 26.3338 62.0946 27.0866C62.0946 27.83 61.9194 28.4976 61.5691 29.0895C61.2234 29.6766 60.6884 30.143 59.964 30.4886C59.2395 30.8295 58.3139 31 57.187 31H51.6117ZM53.8063 29.1179H56.9739C58.025 29.1179 58.7779 28.9143 59.2324 28.5071C59.687 28.0999 59.9142 27.5909 59.9142 26.9801C59.9142 26.5208 59.7982 26.0994 59.5662 25.7159C59.3342 25.3324 59.0028 25.027 58.5719 24.7997C58.1458 24.5724 57.6391 24.4588 57.052 24.4588H53.8063V29.1179ZM53.8063 22.7472H56.7466C57.2391 22.7472 57.6818 22.6525 58.0748 22.4631C58.4725 22.2737 58.7873 22.0085 59.0194 21.6676C59.2561 21.322 59.3745 20.9148 59.3745 20.446C59.3745 19.8447 59.1638 19.3404 58.7424 18.9332C58.321 18.526 57.6747 18.3224 56.8034 18.3224H53.8063V22.7472ZM77.3326 23.7273C77.3326 25.2803 77.0485 26.6155 76.4803 27.733C75.9121 28.8456 75.1332 29.7027 74.1436 30.304C73.1588 30.9006 72.039 31.1989 70.7843 31.1989C69.5248 31.1989 68.4003 30.9006 67.4107 30.304C66.4258 29.7027 65.6493 28.8433 65.0811 27.7259C64.513 26.6084 64.2289 25.2756 64.2289 23.7273C64.2289 22.1742 64.513 20.8414 65.0811 19.7287C65.6493 18.6113 66.4258 17.7543 67.4107 17.1577C68.4003 16.5563 69.5248 16.2557 70.7843 16.2557C72.039 16.2557 73.1588 16.5563 74.1436 17.1577C75.1332 17.7543 75.9121 18.6113 76.4803 19.7287C77.0485 20.8414 77.3326 22.1742 77.3326 23.7273ZM75.1593 23.7273C75.1593 22.5436 74.9675 21.5469 74.584 20.7372C74.2052 19.9228 73.6844 19.3073 73.0215 18.8906C72.3633 18.4692 71.6176 18.2585 70.7843 18.2585C69.9462 18.2585 69.1981 18.4692 68.54 18.8906C67.8818 19.3073 67.361 19.9228 66.9775 20.7372C66.5987 21.5469 66.4093 22.5436 66.4093 23.7273C66.4093 24.911 66.5987 25.91 66.9775 26.7244C67.361 27.5341 67.8818 28.1496 68.54 28.571C69.1981 28.9877 69.9462 29.196 70.7843 29.196C71.6176 29.196 72.3633 28.9877 73.0215 28.571C73.6844 28.1496 74.2052 27.5341 74.584 26.7244C74.9675 25.91 75.1593 24.911 75.1593 23.7273ZM89.4224 16.4545H91.6241V26.0213C91.6241 27.0393 91.385 27.9413 90.9068 28.7273C90.4286 29.5085 89.7562 30.1241 88.8897 30.5739C88.0233 31.0189 87.0076 31.2415 85.8429 31.2415C84.6828 31.2415 83.6696 31.0189 82.8031 30.5739C81.9366 30.1241 81.2643 29.5085 80.786 28.7273C80.3078 27.9413 80.0687 27.0393 80.0687 26.0213V16.4545H82.2633V25.8438C82.2633 26.5019 82.4077 27.0866 82.6966 27.598C82.9901 28.1094 83.4044 28.5118 83.9395 28.8054C84.4745 29.0942 85.109 29.2386 85.8429 29.2386C86.5815 29.2386 87.2183 29.0942 87.7534 28.8054C88.2931 28.5118 88.7051 28.1094 88.9892 27.598C89.278 27.0866 89.4224 26.5019 89.4224 25.8438V16.4545ZM94.0975 18.3438V16.4545H105.355V18.3438H100.816V31H98.6287V18.3438H94.0975ZM112.418 18.3438V16.4545H123.675V18.3438H119.137V31H116.949V18.3438H112.418ZM126.162 31V16.4545H128.357V22.7756H135.608V16.4545H137.81V31H135.608V24.6577H128.357V31H126.162ZM141.006 31V16.4545H150.126V18.3438H143.201V22.7756H149.65V24.6577H143.201V29.1108H150.211V31H141.006ZM160.545 16.4545V31H158.35V16.4545H160.545ZM175.481 16.4545V31H173.464L166.07 20.3324H165.935V31H163.741V16.4545H165.772L173.172 27.1364H173.307V16.4545H175.481ZM186.615 20.2756C186.539 19.6032 186.227 19.0824 185.678 18.7131C185.128 18.339 184.437 18.152 183.604 18.152C183.007 18.152 182.491 18.2467 182.056 18.4361C181.62 18.6207 181.281 18.8764 181.04 19.2031C180.803 19.5251 180.685 19.892 180.685 20.304C180.685 20.6496 180.765 20.9479 180.926 21.1989C181.092 21.4498 181.307 21.6605 181.573 21.831C181.843 21.9967 182.131 22.1364 182.439 22.25C182.747 22.3589 183.043 22.4489 183.327 22.5199L184.747 22.8892C185.211 23.0028 185.687 23.1567 186.175 23.3509C186.663 23.545 187.115 23.8007 187.531 24.1179C187.948 24.4351 188.284 24.8281 188.54 25.2969C188.8 25.7656 188.931 26.3267 188.931 26.9801C188.931 27.804 188.718 28.5355 188.291 29.1747C187.87 29.8139 187.257 30.3182 186.452 30.6875C185.652 31.0568 184.683 31.2415 183.547 31.2415C182.458 31.2415 181.516 31.0687 180.72 30.723C179.925 30.3774 179.302 29.8873 178.852 29.2528C178.403 28.6136 178.154 27.8561 178.107 26.9801H180.308C180.351 27.5057 180.521 27.9437 180.82 28.294C181.123 28.6397 181.509 28.8977 181.977 29.0682C182.451 29.2339 182.969 29.3168 183.533 29.3168C184.153 29.3168 184.705 29.2197 185.188 29.0256C185.675 28.8267 186.059 28.5521 186.338 28.2017C186.618 27.8466 186.757 27.4323 186.757 26.9588C186.757 26.5279 186.634 26.1752 186.388 25.9006C186.146 25.6259 185.817 25.3987 185.401 25.2188C184.989 25.0388 184.522 24.8802 184.002 24.7429L182.283 24.2741C181.118 23.9569 180.195 23.4905 179.513 22.875C178.836 22.2595 178.497 21.4451 178.497 20.4318C178.497 19.5937 178.725 18.8622 179.179 18.2372C179.634 17.6122 180.249 17.1269 181.026 16.7812C181.802 16.4309 182.678 16.2557 183.654 16.2557C184.638 16.2557 185.507 16.4285 186.26 16.7741C187.018 17.1198 187.614 17.5956 188.05 18.2017C188.486 18.803 188.713 19.4943 188.732 20.2756H186.615ZM190.836 18.3438V16.4545H202.093V18.3438H197.555V31H195.367V18.3438H190.836ZM204.58 31V16.4545H209.765C210.892 16.4545 211.827 16.6487 212.57 17.0369C213.319 17.4252 213.877 17.9626 214.247 18.6491C214.616 19.331 214.801 20.1193 214.801 21.0142C214.801 21.9044 214.614 22.688 214.24 23.3651C213.87 24.0374 213.311 24.5606 212.563 24.9347C211.82 25.3087 210.885 25.4957 209.758 25.4957H205.83V23.6065H209.559C210.269 23.6065 210.847 23.5047 211.292 23.3011C211.742 23.0975 212.071 22.8016 212.279 22.4134C212.488 22.0251 212.592 21.5587 212.592 21.0142C212.592 20.465 212.485 19.9891 212.272 19.5866C212.064 19.1842 211.735 18.8764 211.285 18.6634C210.84 18.4455 210.255 18.3366 209.531 18.3366H206.775V31H204.58ZM211.761 24.4375L215.355 31H212.855L209.332 24.4375H211.761ZM226.825 16.4545H229.026V26.0213C229.026 27.0393 228.787 27.9413 228.309 28.7273C227.831 29.5085 227.159 30.1241 226.292 30.5739C225.426 31.0189 224.41 31.2415 223.245 31.2415C222.085 31.2415 221.072 31.0189 220.205 30.5739C219.339 30.1241 218.667 29.5085 218.188 28.7273C217.71 27.9413 217.471 27.0393 217.471 26.0213V16.4545H219.666V25.8438C219.666 26.5019 219.81 27.0866 220.099 27.598C220.392 28.1094 220.807 28.5118 221.342 28.8054C221.877 29.0942 222.511 29.2386 223.245 29.2386C223.984 29.2386 224.621 29.0942 225.156 28.8054C225.695 28.5118 226.107 28.1094 226.392 27.598C226.68 27.0866 226.825 26.5019 226.825 25.8438V16.4545ZM244.298 21.1847H242.082C241.997 20.7112 241.838 20.2945 241.606 19.9347C241.374 19.5748 241.09 19.2694 240.754 19.0185C240.418 18.7675 240.041 18.5781 239.625 18.4503C239.213 18.3224 238.775 18.2585 238.311 18.2585C237.473 18.2585 236.722 18.4692 236.059 18.8906C235.401 19.312 234.881 19.9299 234.497 20.7443C234.118 21.5587 233.929 22.553 233.929 23.7273C233.929 24.911 234.118 25.91 234.497 26.7244C234.881 27.5388 235.404 28.1544 236.067 28.571C236.729 28.9877 237.475 29.196 238.304 29.196C238.763 29.196 239.199 29.1345 239.611 29.0114C240.027 28.8835 240.404 28.6965 240.74 28.4503C241.076 28.2041 241.36 27.9034 241.592 27.5483C241.829 27.1884 241.992 26.7765 242.082 26.3125L244.298 26.3196C244.18 27.0346 243.95 27.6927 243.609 28.294C243.273 28.8906 242.84 29.4067 242.309 29.8423C241.784 30.2732 241.183 30.607 240.506 30.8438C239.828 31.0805 239.09 31.1989 238.29 31.1989C237.03 31.1989 235.908 30.9006 234.923 30.304C233.938 29.7027 233.162 28.8433 232.594 27.7259C232.03 26.6084 231.748 25.2756 231.748 23.7273C231.748 22.1742 232.032 20.8414 232.601 19.7287C233.169 18.6113 233.945 17.7543 234.93 17.1577C235.915 16.5563 237.035 16.2557 238.29 16.2557C239.061 16.2557 239.781 16.367 240.449 16.5895C241.121 16.8073 241.725 17.1293 242.26 17.5554C242.795 17.9768 243.238 18.4929 243.588 19.1037C243.938 19.7098 244.175 20.4034 244.298 21.1847ZM246.207 18.3438V16.4545H257.464V18.3438H252.926V31H250.738V18.3438H246.207ZM271.961 23.7273C271.961 25.2803 271.677 26.6155 271.109 27.733C270.541 28.8456 269.762 29.7027 268.773 30.304C267.788 30.9006 266.668 31.1989 265.413 31.1989C264.154 31.1989 263.029 30.9006 262.04 30.304C261.055 29.7027 260.278 28.8433 259.71 27.7259C259.142 26.6084 258.858 25.2756 258.858 23.7273C258.858 22.1742 259.142 20.8414 259.71 19.7287C260.278 18.6113 261.055 17.7543 262.04 17.1577C263.029 16.5563 264.154 16.2557 265.413 16.2557C266.668 16.2557 267.788 16.5563 268.773 17.1577C269.762 17.7543 270.541 18.6113 271.109 19.7287C271.677 20.8414 271.961 22.1742 271.961 23.7273ZM269.788 23.7273C269.788 22.5436 269.596 21.5469 269.213 20.7372C268.834 19.9228 268.313 19.3073 267.65 18.8906C266.992 18.4692 266.247 18.2585 265.413 18.2585C264.575 18.2585 263.827 18.4692 263.169 18.8906C262.511 19.3073 261.99 19.9228 261.606 20.7372C261.228 21.5469 261.038 22.5436 261.038 23.7273C261.038 24.911 261.228 25.91 261.606 26.7244C261.99 27.5341 262.511 28.1496 263.169 28.571C263.827 28.9877 264.575 29.196 265.413 29.196C266.247 29.196 266.992 28.9877 267.65 28.571C268.313 28.1496 268.834 27.5341 269.213 26.7244C269.596 25.91 269.788 24.911 269.788 23.7273ZM274.698 31V16.4545H279.882C281.009 16.4545 281.944 16.6487 282.688 17.0369C283.436 17.4252 283.994 17.9626 284.364 18.6491C284.733 19.331 284.918 20.1193 284.918 21.0142C284.918 21.9044 284.731 22.688 284.357 23.3651C283.987 24.0374 283.429 24.5606 282.681 24.9347C281.937 25.3087 281.002 25.4957 279.875 25.4957H275.948V23.6065H279.676C280.387 23.6065 280.964 23.5047 281.409 23.3011C281.859 23.0975 282.188 22.8016 282.396 22.4134C282.605 22.0251 282.709 21.5587 282.709 21.0142C282.709 20.465 282.602 19.9891 282.389 19.5866C282.181 19.1842 281.852 18.8764 281.402 18.6634C280.957 18.4455 280.372 18.3366 279.648 18.3366H276.892V31H274.698ZM281.878 24.4375L285.472 31H282.972L279.449 24.4375H281.878Z" fill="url(#paint0_linear_686_16)"></path><rect data-figma-bg-blur-radius="44.8793" x="0.5" y="0.5" width="321" height="46" rx="10.5" stroke="url(#paint1_linear_686_16)" stroke-dasharray="2.88 2.88"></rect><defs><clipPath id="bgblur_0_686_16_clip_path" transform="translate(44.8793 44.8793)"><rect x="0.5" y="0.5" width="321" height="46" rx="10.5"></rect></clipPath><linearGradient id="paint0_linear_686_16" x1="265.104" y1="50.1667" x2="165.091" y2="-97.1783" gradientUnits="userSpaceOnUse"><stop stop-color="#CB9541"></stop><stop offset="1" stop-color="#FFDBA1"></stop></linearGradient><linearGradient id="paint1_linear_686_16" x1="277.48" y1="103.5" x2="4.96885" y2="-46.2365" gradientUnits="userSpaceOnUse"><stop stop-color="#CB9541"></stop><stop offset="1" stop-color="#FFDBA1"></stop></linearGradient></defs></svg> 