<?xml version="1.0" encoding="UTF-8"?> <svg xmlns="http://www.w3.org/2000/svg" width="84" height="84" viewBox="0 0 84 84" fill="none"><circle cx="42" cy="42" r="40.9143" stroke="url(#paint0_linear_686_570)" stroke-width="2.17143"></circle><path d="M55.2003 52.3714C55.2003 52.8928 54.7779 53.3143 54.2574 53.3143H36.1697C35.7793 54.4089 34.7422 55.2 33.5146 55.2C32.287 55.2 31.2498 54.4089 30.8595 53.3143H29.7432C29.2227 53.3143 28.8003 52.8928 28.8003 52.3714C28.8003 51.85 29.2227 51.4286 29.7432 51.4286H30.8595C31.2498 50.3339 32.287 49.5429 33.5146 49.5429C34.7422 49.5429 35.7793 50.3339 36.1697 51.4286H54.2574C54.7779 51.4286 55.2003 51.85 55.2003 52.3714ZM40.1146 41.109L44.7713 38.2286L40.1099 35.3453L40.1146 41.109ZM55.2003 31.6286V44.8286C55.2003 46.3881 53.9312 47.6571 52.3717 47.6571H31.6289C30.0694 47.6571 28.8003 46.3881 28.8003 44.8286V31.6286C28.8003 30.0691 30.0694 28.8 31.6289 28.8H52.3717C53.9312 28.8 55.2003 30.0691 55.2003 31.6286ZM46.6561 38.2286C46.6561 37.5705 46.3223 36.9717 45.7623 36.6248L41.1055 33.7443C40.5257 33.3851 39.7931 33.3681 39.1962 33.701C38.5994 34.0338 38.2289 34.6646 38.2289 35.3481V41.109C38.2289 41.7926 38.6004 42.4243 39.1962 42.7562C39.4819 42.9155 39.7978 42.9938 40.1136 42.9938C40.4587 42.9938 40.8029 42.8995 41.1055 42.7128L45.7623 39.8314C46.3214 39.4854 46.6552 38.8857 46.6552 38.2276L46.6561 38.2286Z" fill="url(#paint1_linear_686_570)"></path><defs><linearGradient id="paint0_linear_686_570" x1="72.576" y1="191.333" x2="-20.0028" y2="184.18" gradientUnits="userSpaceOnUse"><stop stop-color="#CB9541"></stop><stop offset="1" stop-color="#FFDBA1"></stop></linearGradient><linearGradient id="paint1_linear_686_570" x1="51.6099" y1="88.9333" x2="22.5137" y2="86.6851" gradientUnits="userSpaceOnUse"><stop stop-color="#CB9541"></stop><stop offset="1" stop-color="#FFDBA1"></stop></linearGradient></defs></svg> 