<?xml version="1.0" encoding="UTF-8"?> <svg xmlns="http://www.w3.org/2000/svg" width="84" height="84" viewBox="0 0 84 84" fill="none"><circle cx="42" cy="42" r="40.9143" stroke="url(#paint0_linear_686_574)" stroke-width="2.17143"></circle><path d="M46.6151 42.1571C47.2332 42.1253 47.8135 41.8496 48.2293 41.3904C48.6451 40.9313 48.8625 40.3259 48.834 39.7066V36.5181L41.8999 38.3856C41.7845 38.4185 41.6652 38.4354 41.5452 38.4357C41.4253 38.4347 41.3061 38.4179 41.1906 38.3856L33.829 36.4179V39.7066C33.8006 40.3259 34.018 40.9313 34.4338 41.3904C34.8496 41.8496 35.4299 42.1253 36.0479 42.1571H46.6151Z" fill="url(#paint1_linear_686_574)"></path><path d="M54.2904 37.2287V33.9582C54.2893 33.9085 54.2801 33.8593 54.2631 33.8125C54.2631 33.8125 54.2631 33.7897 54.2631 33.776C54.2666 33.6732 54.2353 33.5722 54.1742 33.4895C54.1131 33.4068 54.0258 33.3472 53.9267 33.3206L41.6498 30.0137C41.5721 29.9954 41.4911 29.9954 41.4134 30.0137L29.1365 33.3206C29.0373 33.3472 28.9501 33.4068 28.889 33.4895C28.8279 33.5722 28.7966 33.6732 28.8001 33.776C28.7966 33.8789 28.8279 33.9799 28.889 34.0626C28.9501 34.1453 29.0373 34.2048 29.1365 34.2315L33.829 35.4705L41.427 37.5202C41.4662 37.5265 41.5061 37.5265 41.5452 37.5202C41.5843 37.5271 41.6244 37.5271 41.6635 37.5202L53.381 34.3636V37.2332C53.1164 37.327 52.8871 37.5001 52.7243 37.7292C52.5616 37.9583 52.4733 38.232 52.4716 38.5132V40.3351C52.4716 40.4559 52.5195 40.5718 52.6048 40.6572C52.6901 40.7426 52.8057 40.7906 52.9263 40.7906H54.7451C54.8657 40.7906 54.9814 40.7426 55.0666 40.6572C55.1519 40.5718 55.1998 40.4559 55.1998 40.3351V38.5132C55.199 38.2312 55.1112 37.9565 54.9484 37.7265C54.7856 37.4965 54.5557 37.3227 54.2904 37.2287Z" fill="url(#paint2_linear_686_574)"></path><path d="M53.913 44.7079C53.8775 44.6264 53.819 44.5571 53.7447 44.5085C53.6703 44.46 53.5834 44.4343 53.4947 44.4346H32.3831C31.2009 44.4346 30.3051 46.0015 30.3051 48.0785C30.3051 50.1556 31.2145 51.7225 32.3831 51.7225H34.2837V48.534H33.829C33.7084 48.534 33.5928 48.486 33.5075 48.4006C33.4222 48.3152 33.3743 48.1993 33.3743 48.0785C33.3743 47.9577 33.4222 47.8419 33.5075 47.7564C33.5928 47.671 33.7084 47.623 33.829 47.623H49.2887C49.4093 47.623 49.525 47.671 49.6103 47.7564C49.6955 47.8419 49.7434 47.9577 49.7434 48.0785C49.7434 48.1993 49.6955 48.3152 49.6103 48.4006C49.525 48.486 49.4093 48.534 49.2887 48.534H40.6495V51.7225H53.4947C53.5838 51.724 53.6714 51.6992 53.7466 51.6513C53.8218 51.6033 53.8812 51.5343 53.9176 51.4527C53.9539 51.3712 53.9655 51.2807 53.951 51.1927C53.9364 51.1046 53.8963 51.0227 53.8357 50.9572C52.0169 48.9895 52.0169 47.1675 53.8357 45.1998C53.8949 45.1342 53.9337 45.0527 53.9474 44.9654C53.9611 44.878 53.9492 44.7885 53.913 44.7079Z" fill="url(#paint3_linear_686_574)"></path><path d="M35.1931 53.5444C35.1934 53.6285 35.2169 53.711 35.261 53.7825C35.3052 53.8541 35.3682 53.912 35.4432 53.9498C35.5187 53.9882 35.6034 54.0047 35.6877 53.9974C35.7721 53.9902 35.8528 53.9595 35.9206 53.9088L37.4666 52.7473L39.0126 53.9088C39.0913 53.968 39.187 53.9999 39.2854 53.9999C39.3568 54.0012 39.4273 53.9839 39.49 53.9498C39.565 53.912 39.6281 53.8541 39.6722 53.7825C39.7163 53.711 39.7398 53.6285 39.7401 53.5444V48.534H35.1931V53.5444Z" fill="url(#paint4_linear_686_574)"></path><defs><linearGradient id="paint0_linear_686_574" x1="72.576" y1="191.333" x2="-20.0028" y2="184.18" gradientUnits="userSpaceOnUse"><stop stop-color="#CB9541"></stop><stop offset="1" stop-color="#FFDBA1"></stop></linearGradient><linearGradient id="paint1_linear_686_574" x1="51.6094" y1="84.6667" x2="22.5494" y2="82.1967" gradientUnits="userSpaceOnUse"><stop stop-color="#CB9541"></stop><stop offset="1" stop-color="#FFDBA1"></stop></linearGradient><linearGradient id="paint2_linear_686_574" x1="51.6094" y1="84.6667" x2="22.5494" y2="82.1967" gradientUnits="userSpaceOnUse"><stop stop-color="#CB9541"></stop><stop offset="1" stop-color="#FFDBA1"></stop></linearGradient><linearGradient id="paint3_linear_686_574" x1="51.6094" y1="84.6667" x2="22.5494" y2="82.1967" gradientUnits="userSpaceOnUse"><stop stop-color="#CB9541"></stop><stop offset="1" stop-color="#FFDBA1"></stop></linearGradient><linearGradient id="paint4_linear_686_574" x1="51.6094" y1="84.6667" x2="22.5494" y2="82.1967" gradientUnits="userSpaceOnUse"><stop stop-color="#CB9541"></stop><stop offset="1" stop-color="#FFDBA1"></stop></linearGradient></defs></svg> 