<?xml version="1.0" encoding="UTF-8"?> <svg xmlns="http://www.w3.org/2000/svg" width="82" height="48" viewBox="0 0 82 48" fill="none"><rect width="82" height="48" rx="6" fill="url(#paint0_linear_696_955)"></rect><path fill-rule="evenodd" clip-rule="evenodd" d="M53.5157 23.8552C53.248 23.8552 52.9803 23.5837 52.9803 23.3122V17.9502H29.0197V23.3122C29.0197 23.5837 28.752 23.8552 28.4843 23.8552C28.2165 23.8552 28.0157 23.5837 28.0157 23.3122V17.4751C28.0157 17.2036 28.2165 17 28.4843 17H53.4488C53.7835 17 53.9843 17.2036 53.9843 17.4751V23.3801C53.9843 23.5837 53.7835 23.8552 53.5157 23.8552Z" fill="#48370A"></path><path fill-rule="evenodd" clip-rule="evenodd" d="M41 23.8552C40.7323 23.8552 40.5315 23.5837 40.5315 23.3122V17.4751C40.5315 17.2036 40.7323 17 41 17C41.2677 17 41.5354 17.2036 41.5354 17.4751V23.3801C41.4685 23.5837 41.2677 23.8552 41 23.8552Z" fill="#48370A"></path><path fill-rule="evenodd" clip-rule="evenodd" d="M28.5512 32C26.0079 32 24 29.9638 24 27.4525C24 24.8733 26.0079 22.8371 28.5512 22.8371C31.0276 22.8371 33.0354 24.8733 33.0354 27.4525C33.0354 29.9638 31.0276 32 28.5512 32Z" fill="#48370A"></path><path fill-rule="evenodd" clip-rule="evenodd" d="M41 32C38.5236 32 36.5157 29.8959 36.5157 27.3846C36.5157 24.8733 38.5236 22.8371 41 22.8371C43.4764 22.8371 45.5512 24.8733 45.5512 27.3846C45.5512 29.9638 43.4764 32 41 32Z" fill="#48370A"></path><path fill-rule="evenodd" clip-rule="evenodd" d="M53.5157 32C51.0394 32 48.9646 29.9638 48.9646 27.4525C48.9646 24.8733 51.0394 22.8371 53.5157 22.8371C55.9921 22.8371 58 24.8733 58 27.4525C58 29.9638 55.9921 32 53.5157 32Z" fill="#48370A"></path><defs><linearGradient id="paint0_linear_696_955" x1="70.848" y1="109.333" x2="-18.5091" y2="97.5381" gradientUnits="userSpaceOnUse"><stop stop-color="#CB9541"></stop><stop offset="1" stop-color="#FFDBA1"></stop></linearGradient></defs></svg> 