<?xml version="1.0" encoding="UTF-8"?> <svg xmlns="http://www.w3.org/2000/svg" width="78" height="40" viewBox="0 0 78 40" fill="none"><rect opacity="0.08" width="78" height="40" rx="6" fill="white"></rect><path d="M28.4859 27L30.6336 13.9091H31.912L29.7643 27H28.4859ZM22.5285 23.3693L22.733 22.0909H32.5001L32.2955 23.3693H22.5285ZM23.8836 27L26.0313 13.9091H27.3097L25.162 27H23.8836ZM23.2955 18.8182L23.5001 17.5398H33.2671L33.0626 18.8182H23.2955ZM39.2021 27.179C38.2391 27.179 37.4188 26.9169 36.7412 26.3928C36.0637 25.8643 35.5459 25.0994 35.1879 24.098C34.83 23.0923 34.651 21.8778 34.651 20.4545C34.651 19.0398 34.83 17.8317 35.1879 16.8303C35.5502 15.8246 36.07 15.0575 36.7476 14.5291C37.4294 13.9964 38.2476 13.7301 39.2021 13.7301C40.1567 13.7301 40.9727 13.9964 41.6503 14.5291C42.3321 15.0575 42.852 15.8246 43.21 16.8303C43.5722 17.8317 43.7533 19.0398 43.7533 20.4545C43.7533 21.8778 43.5743 23.0923 43.2164 24.098C42.8584 25.0994 42.3406 25.8643 41.6631 26.3928C40.9855 26.9169 40.1652 27.179 39.2021 27.179ZM39.2021 25.7727C40.1567 25.7727 40.8982 25.3125 41.4266 24.392C41.955 23.4716 42.2192 22.1591 42.2192 20.4545C42.2192 19.321 42.0977 18.3558 41.8548 17.5589C41.6162 16.7621 41.271 16.1548 40.8193 15.7372C40.3719 15.3196 39.8328 15.1108 39.2021 15.1108C38.2561 15.1108 37.5168 15.5774 36.9841 16.5107C36.4514 17.4396 36.1851 18.7543 36.1851 20.4545C36.1851 21.5881 36.3044 22.5511 36.5431 23.3438C36.7817 24.1364 37.1247 24.7393 37.5722 25.1527C38.0239 25.5661 38.5672 25.7727 39.2021 25.7727ZM50.2732 27.179C49.5232 27.179 48.8477 27.0298 48.2469 26.7315C47.646 26.4332 47.1645 26.0241 46.8023 25.5043C46.4401 24.9844 46.2419 24.392 46.2078 23.7273H47.7419C47.8016 24.3196 48.07 24.8097 48.5473 25.1974C49.0289 25.581 49.6041 25.7727 50.2732 25.7727C50.8101 25.7727 51.2874 25.647 51.705 25.3956C52.1269 25.1442 52.4571 24.799 52.6958 24.3601C52.9387 23.9169 53.0601 23.4162 53.0601 22.858C53.0601 22.2869 52.9344 21.7777 52.683 21.3303C52.4358 20.8786 52.0949 20.5227 51.6602 20.2628C51.2256 20.0028 50.7291 19.8707 50.1709 19.8665C49.7703 19.8622 49.3591 19.924 48.9372 20.0518C48.5154 20.1754 48.1681 20.3352 47.8953 20.5312L46.4124 20.3523L47.205 13.9091H54.0061V15.3153H48.5345L48.0743 19.1761H48.151C48.4195 18.9631 48.7561 18.7862 49.161 18.6456C49.5658 18.505 49.9877 18.4347 50.4266 18.4347C51.2277 18.4347 51.9415 18.6264 52.5679 19.0099C53.1986 19.3892 53.6929 19.9091 54.0509 20.5696C54.4131 21.2301 54.5942 21.9844 54.5942 22.8324C54.5942 23.6676 54.4067 24.4134 54.0317 25.0696C53.661 25.7216 53.1496 26.2372 52.4976 26.6165C51.8456 26.9915 51.1041 27.179 50.2732 27.179Z" fill="url(#paint0_linear_686_599)"></path><defs><linearGradient id="paint0_linear_686_599" x1="51.376" y1="43.6111" x2="15.159" y2="36.2921" gradientUnits="userSpaceOnUse"><stop stop-color="#CB9541"></stop><stop offset="1" stop-color="#FFDBA1"></stop></linearGradient></defs></svg> 