<?xml version="1.0" encoding="UTF-8"?> <svg xmlns="http://www.w3.org/2000/svg" width="78" height="40" viewBox="0 0 78 40" fill="none"><rect opacity="0.08" width="78" height="40" rx="6" fill="white"></rect><path d="M28.731 27L30.8787 13.9091H32.1571L30.0094 27H28.731ZM22.7736 23.3693L22.9782 22.0909H32.7452L32.5407 23.3693H22.7736ZM24.1287 27L26.2765 13.9091H27.5549L25.4071 27H24.1287ZM23.5407 18.8182L23.7452 17.5398H33.5123L33.3077 18.8182H23.5407ZM39.4473 27.179C38.4842 27.179 37.6639 26.9169 36.9863 26.3928C36.3088 25.8643 35.791 25.0994 35.4331 24.098C35.0751 23.0923 34.8961 21.8778 34.8961 20.4545C34.8961 19.0398 35.0751 17.8317 35.4331 16.8303C35.7953 15.8246 36.3152 15.0575 36.9927 14.5291C37.6745 13.9964 38.4927 13.7301 39.4473 13.7301C40.4018 13.7301 41.2179 13.9964 41.8954 14.5291C42.5772 15.0575 43.0971 15.8246 43.4551 16.8303C43.8173 17.8317 43.9984 19.0398 43.9984 20.4545C43.9984 21.8778 43.8194 23.0923 43.4615 24.098C43.1035 25.0994 42.5858 25.8643 41.9082 26.3928C41.2306 26.9169 40.4103 27.179 39.4473 27.179ZM39.4473 25.7727C40.4018 25.7727 41.1433 25.3125 41.6717 24.392C42.2001 23.4716 42.4643 22.1591 42.4643 20.4545C42.4643 19.321 42.3429 18.3558 42.1 17.5589C41.8613 16.7621 41.5162 16.1548 41.0645 15.7372C40.617 15.3196 40.0779 15.1108 39.4473 15.1108C38.5012 15.1108 37.7619 15.5774 37.2292 16.5107C36.6966 17.4396 36.4302 18.7543 36.4302 20.4545C36.4302 21.5881 36.5495 22.5511 36.7882 23.3438C37.0268 24.1364 37.3699 24.7393 37.8173 25.1527C38.269 25.5661 38.8123 25.7727 39.4473 25.7727ZM50.8507 27.179C50.0069 27.179 49.2548 27.0341 48.5943 26.7443C47.938 26.4545 47.416 26.0518 47.0282 25.5362C46.6447 25.0163 46.4359 24.4134 46.4018 23.7273H48.0126C48.0467 24.1491 48.1916 24.5135 48.4473 24.8203C48.7029 25.1229 49.0375 25.3572 49.4508 25.5234C49.8642 25.6896 50.3223 25.7727 50.8251 25.7727C51.3876 25.7727 51.8862 25.6747 52.3208 25.4787C52.7555 25.2827 53.0964 25.0099 53.3436 24.6605C53.5907 24.3111 53.7143 23.9062 53.7143 23.446C53.7143 22.9645 53.595 22.5405 53.3564 22.174C53.1177 21.8033 52.7683 21.5135 52.3081 21.3047C51.8478 21.0959 51.2853 20.9915 50.6206 20.9915H49.5723V19.5852H50.6206C51.1404 19.5852 51.5964 19.4915 51.9885 19.304C52.3848 19.1165 52.6937 18.8523 52.9153 18.5114C53.1412 18.1705 53.2541 17.7699 53.2541 17.3097C53.2541 16.8665 53.1561 16.4808 52.9601 16.1527C52.764 15.8246 52.487 15.5689 52.1291 15.3857C51.7754 15.2024 51.3578 15.1108 50.8762 15.1108C50.4245 15.1108 49.9984 15.1939 49.5978 15.3601C49.2015 15.522 48.8777 15.7585 48.6262 16.0696C48.3748 16.3764 48.2385 16.7472 48.2172 17.1818H46.6831C46.7086 16.4957 46.9153 15.8949 47.3031 15.3793C47.6909 14.8594 48.198 14.4545 48.8244 14.1648C49.4551 13.875 50.1475 13.7301 50.9018 13.7301C51.7115 13.7301 52.4061 13.8942 52.9856 14.2223C53.5652 14.5462 54.0105 14.9744 54.3216 15.5071C54.6326 16.0398 54.7882 16.6151 54.7882 17.233C54.7882 17.9702 54.5943 18.5987 54.2065 19.1186C53.823 19.6385 53.301 19.9986 52.6404 20.1989V20.3011C53.4672 20.4375 54.1127 20.7891 54.5772 21.3558C55.0417 21.9183 55.274 22.6151 55.274 23.446C55.274 24.1577 55.0801 24.7969 54.6923 25.3636C54.3088 25.9261 53.7846 26.3693 53.1199 26.6932C52.4551 27.017 51.6987 27.179 50.8507 27.179Z" fill="url(#paint0_linear_686_593)"></path><defs><linearGradient id="paint0_linear_686_593" x1="52.24" y1="43.6111" x2="15.0449" y2="35.8733" gradientUnits="userSpaceOnUse"><stop stop-color="#CB9541"></stop><stop offset="1" stop-color="#FFDBA1"></stop></linearGradient></defs></svg> 